<?xml version="1.0" encoding="UTF-8"?>
<svg id="Layer_2" data-name="Layer 2" xmlns="http://www.w3.org/2000/svg" viewBox="0 0 360.92 100.9">
  <defs>
    <style>
      .cls-1 {
        fill: #292929;
        opacity: .6;
      }

      .cls-2 {
        fill: #111;
      }
    </style>
  </defs>
  <g id="Layer_1-2" data-name="Layer 1">
    <g>
      <path class="cls-2" d="M123.66,78.83c-5.41,0-9.95-1.21-13.64-3.63-3.69-2.42-6.29-5.7-7.8-9.86l9.2-5.38c2.13,5.56,6.32,8.34,12.55,8.34,3.01,0,5.22-.55,6.63-1.64,1.4-1.09,2.1-2.47,2.1-4.13,0-1.92-.86-3.42-2.57-4.48-1.72-1.07-4.78-2.22-9.2-3.47-2.44-.73-4.51-1.45-6.2-2.18-1.69-.73-3.38-1.7-5.07-2.92-1.69-1.22-2.98-2.77-3.86-4.64-.88-1.87-1.33-4.05-1.33-6.55,0-4.94,1.75-8.87,5.26-11.81,3.51-2.94,7.73-4.41,12.67-4.41,4.42,0,8.3,1.08,11.66,3.24,3.35,2.16,5.96,5.16,7.84,9.01l-9.04,5.22c-2.18-4.68-5.67-7.02-10.45-7.02-2.24,0-3.99.51-5.26,1.52-1.27,1.01-1.91,2.33-1.91,3.94,0,1.72.71,3.11,2.14,4.17,1.43,1.07,4.17,2.22,8.23,3.47,1.66.52,2.92.92,3.78,1.21.86.29,2.03.73,3.51,1.33,1.48.6,2.62,1.16,3.43,1.68.81.52,1.73,1.22,2.77,2.1,1.04.88,1.83,1.79,2.38,2.73.55.94,1.01,2.07,1.4,3.39s.58,2.77.58,4.33c0,5.04-1.83,9.04-5.5,12.01s-8.43,4.44-14.31,4.44Z"/>
      <path class="cls-2" d="M171.69,37.66c4.26,0,7.78,1.43,10.56,4.29,2.78,2.86,4.17,6.81,4.17,11.85v23.94h-10.06v-22.69c0-2.6-.7-4.59-2.11-5.96-1.4-1.38-3.27-2.07-5.61-2.07-2.6,0-4.68.81-6.24,2.42-1.56,1.61-2.34,4.03-2.34,7.25v21.05h-10.06V23.16h10.06v19.96c2.44-3.64,6.32-5.46,11.62-5.46Z"/>
      <path class="cls-2" d="M199.99,34.08c-1.66,0-3.11-.61-4.33-1.83-1.22-1.22-1.83-2.66-1.83-4.33s.61-3.12,1.83-4.37c1.22-1.25,2.66-1.87,4.33-1.87s3.18.62,4.41,1.87c1.22,1.25,1.83,2.7,1.83,4.37s-.61,3.11-1.83,4.33-2.69,1.83-4.41,1.83ZM195,77.74v-38.98h10.06v38.98h-10.06Z"/>
      <path class="cls-2" d="M239.91,38.76h11.07l-14.81,38.98h-11.46l-14.81-38.98h11.07l9.45,27.28,9.5-27.28Z"/>
      <path class="cls-2" d="M283.89,38.76h10.06v38.98h-10.06v-4.6c-3.02,3.8-7.25,5.69-12.71,5.69s-9.66-1.99-13.37-5.96c-3.72-3.98-5.57-8.85-5.57-14.62s1.86-10.64,5.57-14.62c3.72-3.98,8.17-5.96,13.37-5.96,5.46,0,9.69,1.9,12.71,5.69v-4.6ZM265.33,66.16c2.03,2.05,4.6,3.08,7.72,3.08s5.7-1.03,7.76-3.08c2.05-2.05,3.08-4.69,3.08-7.91s-1.03-5.86-3.08-7.91c-2.05-2.05-4.64-3.08-7.76-3.08s-5.69,1.03-7.72,3.08c-2.03,2.05-3.04,4.69-3.04,7.91s1.01,5.86,3.04,7.91Z"/>
      <path class="cls-2" d="M346.18,37.66c4.47,0,8.04,1.46,10.72,4.37,2.68,2.91,4.02,6.81,4.02,11.7v24.01h-10.06v-23.31c0-2.34-.57-4.16-1.72-5.46-1.14-1.3-2.76-1.95-4.83-1.95-2.29,0-4.07.75-5.34,2.26-1.27,1.51-1.91,3.69-1.91,6.55v21.91h-10.06v-23.31c0-2.34-.57-4.16-1.72-5.46-1.14-1.3-2.76-1.95-4.83-1.95-2.24,0-4.02.75-5.34,2.26-1.33,1.51-1.99,3.69-1.99,6.55v21.91h-10.06v-38.98h10.06v4.13c2.34-3.48,5.95-5.22,10.84-5.22s8.32,1.87,10.6,5.61c2.6-3.74,6.47-5.61,11.62-5.61Z"/>
    </g>
    <path class="cls-2" d="M33.02,100.9c-12.47,0-24.2-4.52-33.02-12.73l16.54-15.39c4.4,4.1,10.26,6.36,16.48,6.36s12.08-2.26,16.48-6.36c4.4-4.1,6.83-9.55,6.83-15.34s-2.43-11.25-6.83-15.34l16.54-15.39c8.82,8.21,13.68,19.13,13.68,30.74s-4.86,22.53-13.68,30.74c-8.82,8.21-20.55,12.73-33.02,12.73Z"/>
    <path class="cls-1" d="M48,0c12.47,0,24.2,4.52,33.02,12.73l-16.54,15.39c-4.4-4.1-10.26-6.36-16.48-6.36s-12.08,2.26-16.48,6.36c-4.4,4.1-6.83,9.55-6.83,15.34s2.43,11.25,6.83,15.34l-16.54,15.39C6.16,66,1.3,55.08,1.3,43.47S6.16,20.94,14.98,12.73C23.8,4.52,35.53,0,48,0Z"/>
  </g>
</svg>